<svg width="12" height="11" viewBox="0 0 12 11" fill="none" xmlns="http://www.w3.org/2000/svg">
   <g clip-path="url(#clip0_8890_51)">
      <path d="M9.18201 7.68201L6 10.864L2.81802 7.68201C1.06066 5.92461 1.06066 3.07538 2.81802 1.31802C4.57538 -0.43934 7.42461 -0.43934 9.18201 1.31802C10.9394 3.07538 10.9394 5.92461 9.18201 7.68201ZM6 6.50001C7.10456 6.50001 8.00001 5.60456 8.00001 4.5C8.00001 3.39543 7.10456 2.5 6 2.5C4.89543 2.5 4 3.39543 4 4.5C4 5.60456 4.89543 6.50001 6 6.50001ZM6 5.50001C5.4477 5.50001 5 5.0523 5 4.5C5 3.94772 5.4477 3.5 6 3.5C6.5523 3.5 7.00001 3.94772 7.00001 4.5C7.00001 5.0523 6.5523 5.50001 6 5.50001Z" fill="#89898A"/>
   </g>
   <defs>
      <clipPath id="clip0_8890_51">
         <rect width="12" height="10.864" fill="white"/>
      </clipPath>
   </defs>
</svg>